# xmcd
#
# Track frame offsets:
#	187
#	19822
#	49134
#	76677
#
# Disc length: 1356 seconds
# Revision: 0
# Processed by: cddbd v1.5.2PL0 Copyright (c) Steve Scherf et al.
# Submitted via: dBpowerAMP V12.0
#
DISCID=23054a04
DTITLE=Legacy Of Sound starring Lori Perry - Wait (For Our Love To Find Us)
DYEAR=1995
DGENRE=House
TTITLE0=Wait (For Our Love To Find Us) [Single Version]
TTITLE1=Wait (For Our Love To Find Us) [Extended Version]
TTITLE2=Wait (For Our Love To Find Us) [Penthouse Club]
TTITLE3=Wait (For Our Love To Find Us) [Afterhours Dub]
EXTD=
EXTT0=
EXTT1=
EXTT2=
EXTT3=
PLAYORDER=
